<svg width="14" height="9" viewBox="0 0 14 9" fill="none" xmlns="http://www.w3.org/2000/svg">
<path d="M1 3.9C0.668629 3.9 0.4 4.16863 0.4 4.5C0.4 4.83137 0.668629 5.1 1 5.1V3.9ZM13.4243 4.92426C13.6586 4.68995 13.6586 4.31005 13.4243 4.07574L9.60589 0.257359C9.37157 0.0230446 8.99167 0.0230446 8.75736 0.257359C8.52304 0.491674 8.52304 0.871573 8.75736 1.10589L12.1515 4.5L8.75736 7.89411C8.52304 8.12843 8.52304 8.50833 8.75736 8.74264C8.99167 8.97696 9.37157 8.97696 9.60589 8.74264L13.4243 4.92426ZM1 5.1H13V3.9H1V5.1Z" fill="#023EAC"/>
</svg>
