<svg width="16" height="16" viewBox="0 0 16 16" fill="none" xmlns="http://www.w3.org/2000/svg">
<path fill-rule="evenodd" clip-rule="evenodd" d="M8.14231 6.2321L2.83899 0.928779C2.35083 0.440623 1.55938 0.440623 1.07122 0.928778C0.583067 1.41693 0.583067 2.20839 1.07122 2.69654L6.37454 7.99987L1.07109 13.3033C0.582934 13.7915 0.582934 14.5829 1.07109 15.0711C1.55924 15.5592 2.3507 15.5592 2.83886 15.0711L8.14231 9.76763L13.4456 15.0709C13.9337 15.5591 14.7252 15.5591 15.2134 15.0709C15.7015 14.5828 15.7015 13.7913 15.2134 13.3031L9.91008 7.99987L15.2132 2.69672C15.7014 2.20857 15.7014 1.41711 15.2132 0.928954C14.7251 0.440799 13.9336 0.440799 13.4455 0.928954L8.14231 6.2321Z" fill="white"/>
</svg>
