<svg width="32" height="32" viewBox="0 0 32 32" fill="none" xmlns="http://www.w3.org/2000/svg">
<circle cx="16" cy="16" r="16" fill="white"/>
<path d="M24.3087 21.275C24.3087 21.575 24.242 21.8834 24.1003 22.1834C23.9587 22.4834 23.7753 22.7667 23.5337 23.0334C23.1253 23.4834 22.6753 23.8084 22.167 24.0167C21.667 24.225 21.1253 24.3334 20.542 24.3334C19.692 24.3334 18.7837 24.1334 17.8253 23.725C16.867 23.3167 15.9087 22.7667 14.9587 22.075C14.0003 21.375 13.092 20.6 12.2253 19.7417C11.367 18.875 10.592 17.9667 9.90033 17.0167C9.21699 16.0667 8.66699 15.1167 8.26699 14.175C7.86699 13.225 7.66699 12.3167 7.66699 11.45C7.66699 10.8834 7.76699 10.3417 7.96699 9.84169C8.16699 9.33335 8.48366 8.86669 8.92533 8.45002C9.45866 7.92502 10.042 7.66669 10.6587 7.66669C10.892 7.66669 11.1253 7.71669 11.3337 7.81669C11.5503 7.91669 11.742 8.06669 11.892 8.28335L13.8253 11.0084C13.9753 11.2167 14.0837 11.4084 14.1587 11.5917C14.2337 11.7667 14.2753 11.9417 14.2753 12.1C14.2753 12.3 14.217 12.5 14.1003 12.6917C13.992 12.8834 13.8337 13.0834 13.6337 13.2834L13.0003 13.9417C12.9087 14.0334 12.867 14.1417 12.867 14.275C12.867 14.3417 12.8753 14.4 12.892 14.4667C12.917 14.5334 12.942 14.5834 12.9587 14.6334C13.1087 14.9084 13.367 15.2667 13.7337 15.7C14.1087 16.1334 14.5087 16.575 14.942 17.0167C15.392 17.4584 15.8253 17.8667 16.267 18.2417C16.7003 18.6084 17.0587 18.8584 17.342 19.0084C17.3837 19.025 17.4337 19.05 17.492 19.075C17.5587 19.1 17.6253 19.1084 17.7003 19.1084C17.842 19.1084 17.9503 19.0584 18.042 18.9667L18.6753 18.3417C18.8837 18.1334 19.0837 17.975 19.2753 17.875C19.467 17.7584 19.6587 17.7 19.867 17.7C20.0253 17.7 20.192 17.7334 20.3753 17.8084C20.5587 17.8834 20.7503 17.9917 20.9587 18.1334L23.717 20.0917C23.9337 20.2417 24.0837 20.4167 24.1753 20.625C24.2587 20.8334 24.3087 21.0417 24.3087 21.275Z" stroke="#0B132B" stroke-width="2" stroke-miterlimit="10"/>
</svg>
