<svg width="10" height="14" viewBox="0 0 10 14" fill="none" xmlns="http://www.w3.org/2000/svg">
<path d="M5.6 1C5.6 0.668629 5.33137 0.4 5 0.4C4.66863 0.4 4.4 0.668629 4.4 1L5.6 1ZM4.57574 13.4243C4.81005 13.6586 5.18995 13.6586 5.42426 13.4243L9.24264 9.60589C9.47696 9.37157 9.47696 8.99167 9.24264 8.75736C9.00833 8.52304 8.62843 8.52304 8.39411 8.75736L5 12.1515L1.60589 8.75736C1.37157 8.52304 0.991674 8.52304 0.757359 8.75736C0.523045 8.99167 0.523045 9.37157 0.757359 9.60589L4.57574 13.4243ZM4.4 1L4.4 13H5.6L5.6 1L4.4 1Z" fill="#023EAC"/>
<path d="M1 13L9 13" stroke="#023EAC" stroke-width="1.2" stroke-linecap="round"/>
</svg>
