<svg width="32" height="32" viewBox="0 0 32 32" fill="none" xmlns="http://www.w3.org/2000/svg">
<circle cx="16" cy="16" r="16" fill="white"/>
<path fill-rule="evenodd" clip-rule="evenodd" d="M17.2502 14.75V7.25C17.2502 6.55964 16.6906 6 16.0002 6C15.3099 6 14.7502 6.55964 14.7502 7.25V14.75H7.25C6.55964 14.75 6 15.3097 6 16C6 16.6904 6.55964 17.25 7.25 17.25H14.7502V24.75C14.7502 25.4404 15.3099 26 16.0002 26C16.6906 26 17.2502 25.4404 17.2502 24.75V17.25H24.75C25.4404 17.25 26 16.6904 26 16C26 15.3097 25.4404 14.75 24.75 14.75H17.2502Z" fill="#0B132B"/>
</svg>
